<svg width="512pt" height="307pt" viewBox="0.00 0.00 512.00 307.00" xmlns="http://www.w3.org/2000/svg" xmlns:xlink="http://www.w3.org/1999/xlink">
<g id="graph0" class="graph" transform="scale(1 1) rotate(0) translate(4 303)">
<title>vmbus</title>
<text text-anchor="start" x="111.4512" y="-20.4" font-family="Times,serif" font-weight="bold" text-decoration="underline" font-size="14.00" fill="#000000">VMBus: An IPC channel between Host and Guest</text>
<text text-anchor="start" x="149.3737" y="-6.4" font-family="Times,serif" font-weight="bold" text-decoration="underline" font-size="14.00" fill="#000000">implemented as a shared ring buffer</text>
<text text-anchor="start" x="351.1263" y="-6.4" font-family="Times,serif" font-size="14.00" fill="#000000"> </text>
<!-- host_rb -->
<g id="node1" class="node">
<title>host_rb</title>
<path fill="#0078d7" stroke="#000000" d="M12,-50.5C12,-50.5 132,-50.5 132,-50.5 138,-50.5 144,-56.5 144,-62.5 144,-62.5 144,-286.5 144,-286.5 144,-292.5 138,-298.5 132,-298.5 132,-298.5 12,-298.5 12,-298.5 6,-298.5 0,-292.5 0,-286.5 0,-286.5 0,-62.5 0,-62.5 0,-56.5 6,-50.5 12,-50.5"></path>
<text text-anchor="middle" x="72" y="-281.9" font-family="Times,serif" font-size="14.00" fill="#000000">Host Ring Buffer</text>
<polyline fill="none" stroke="#000000" points="0,-273.7 144,-273.7 "></polyline>
<text text-anchor="middle" x="72" y="-257.1" font-family="Times,serif" font-size="14.00" fill="#000000">...</text>
<polyline fill="none" stroke="#000000" points="0,-248.9 144,-248.9 "></polyline>
<text text-anchor="middle" x="72" y="-232.3" font-family="Times,serif" font-size="14.00" fill="#000000">...</text>
<polyline fill="none" stroke="#000000" points="0,-224.1 144,-224.1 "></polyline>
<text text-anchor="middle" x="72" y="-207.5" font-family="Times,serif" font-size="14.00" fill="#000000">...</text>
<polyline fill="none" stroke="#000000" points="0,-199.3 144,-199.3 "></polyline>
<text text-anchor="middle" x="72" y="-182.7" font-family="Times,serif" font-size="14.00" fill="#000000">...</text>
<polyline fill="none" stroke="#000000" points="0,-174.5 144,-174.5 "></polyline>
<text text-anchor="middle" x="72" y="-157.9" font-family="Times,serif" font-size="14.00" fill="#000000">...</text>
<polyline fill="none" stroke="#000000" points="0,-149.7 144,-149.7 "></polyline>
<text text-anchor="middle" x="72" y="-133.1" font-family="Times,serif" font-size="14.00" fill="#000000">...</text>
<polyline fill="none" stroke="#000000" points="0,-124.9 144,-124.9 "></polyline>
<text text-anchor="middle" x="72" y="-108.3" font-family="Times,serif" font-size="14.00" fill="#000000">...</text>
<polyline fill="none" stroke="#000000" points="0,-100.1 144,-100.1 "></polyline>
<text text-anchor="middle" x="72" y="-83.5" font-family="Times,serif" font-size="14.00" fill="#000000">...</text>
<polyline fill="none" stroke="#000000" points="0,-75.3 144,-75.3 "></polyline>
<text text-anchor="middle" x="72" y="-58.7" font-family="Times,serif" font-size="14.00" fill="#000000">...</text>
</g>
<!-- sys_mem -->
<g id="node3" class="node">
<title>sys_mem</title>
<path fill="#add8e6" stroke="#000000" d="M192,-50.5C192,-50.5 312,-50.5 312,-50.5 318,-50.5 324,-56.5 324,-62.5 324,-62.5 324,-286.5 324,-286.5 324,-292.5 318,-298.5 312,-298.5 312,-298.5 192,-298.5 192,-298.5 186,-298.5 180,-292.5 180,-286.5 180,-286.5 180,-62.5 180,-62.5 180,-56.5 186,-50.5 192,-50.5"></path>
<text text-anchor="middle" x="252" y="-281.9" font-family="Times,serif" font-size="14.00" fill="#000000">System Memory</text>
<polyline fill="none" stroke="#000000" points="180,-273.7 324,-273.7 "></polyline>
<text text-anchor="middle" x="252" y="-257.1" font-family="Times,serif" font-size="14.00" fill="#000000">...</text>
<polyline fill="none" stroke="#000000" points="180,-248.9 324,-248.9 "></polyline>
<text text-anchor="middle" x="252" y="-232.3" font-family="Times,serif" font-size="14.00" fill="#000000">0x01000</text>
<polyline fill="none" stroke="#000000" points="180,-224.1 324,-224.1 "></polyline>
<text text-anchor="middle" x="252" y="-207.5" font-family="Times,serif" font-size="14.00" fill="#000000">0x02000</text>
<polyline fill="none" stroke="#000000" points="180,-199.3 324,-199.3 "></polyline>
<text text-anchor="middle" x="252" y="-182.7" font-family="Times,serif" font-size="14.00" fill="#000000">0x03000</text>
<polyline fill="none" stroke="#000000" points="180,-174.5 324,-174.5 "></polyline>
<text text-anchor="middle" x="252" y="-157.9" font-family="Times,serif" font-size="14.00" fill="#000000">...</text>
<polyline fill="none" stroke="#000000" points="180,-149.7 324,-149.7 "></polyline>
<text text-anchor="middle" x="252" y="-133.1" font-family="Times,serif" font-size="14.00" fill="#000000">0x8f000</text>
<polyline fill="none" stroke="#000000" points="180,-124.9 324,-124.9 "></polyline>
<text text-anchor="middle" x="252" y="-108.3" font-family="Times,serif" font-size="14.00" fill="#000000">0x90000</text>
<polyline fill="none" stroke="#000000" points="180,-100.1 324,-100.1 "></polyline>
<text text-anchor="middle" x="252" y="-83.5" font-family="Times,serif" font-size="14.00" fill="#000000">0x91000</text>
<polyline fill="none" stroke="#000000" points="180,-75.3 324,-75.3 "></polyline>
<text text-anchor="middle" x="252" y="-58.7" font-family="Times,serif" font-size="14.00" fill="#000000">...</text>
</g>
<!-- host_rb->sys_mem -->
<g id="edge1" class="edge">
<title>host_rb:top->sys_mem:top</title>
<path fill="none" stroke="#000000" stroke-width="2" stroke-dasharray="5,2" d="M144,-236.5C144,-236.5 180,-211.5 180,-211.5"></path>
</g>
<!-- host_rb->sys_mem -->
<g id="edge2" class="edge">
<title>host_rb:btm->sys_mem:btm</title>
<path fill="none" stroke="#000000" stroke-width="2" stroke-dasharray="5,2" d="M144,-62.5C144,-62.5 180,-62.5 180,-62.5"></path>
</g>
<!-- guest_rb -->
<g id="node2" class="node">
<title>guest_rb</title>
<path fill="#0078d7" stroke="#000000" d="M372,-50.5C372,-50.5 492,-50.5 492,-50.5 498,-50.5 504,-56.5 504,-62.5 504,-62.5 504,-286.5 504,-286.5 504,-292.5 498,-298.5 492,-298.5 492,-298.5 372,-298.5 372,-298.5 366,-298.5 360,-292.5 360,-286.5 360,-286.5 360,-62.5 360,-62.5 360,-56.5 366,-50.5 372,-50.5"></path>
<text text-anchor="middle" x="432" y="-281.9" font-family="Times,serif" font-size="14.00" fill="#000000">Guest Ring Buffer</text>
<polyline fill="none" stroke="#000000" points="360,-273.7 504,-273.7 "></polyline>
<text text-anchor="middle" x="432" y="-257.1" font-family="Times,serif" font-size="14.00" fill="#000000">...</text>
<polyline fill="none" stroke="#000000" points="360,-248.9 504,-248.9 "></polyline>
<text text-anchor="middle" x="432" y="-232.3" font-family="Times,serif" font-size="14.00" fill="#000000">...</text>
<polyline fill="none" stroke="#000000" points="360,-224.1 504,-224.1 "></polyline>
<text text-anchor="middle" x="432" y="-207.5" font-family="Times,serif" font-size="14.00" fill="#000000">...</text>
<polyline fill="none" stroke="#000000" points="360,-199.3 504,-199.3 "></polyline>
<text text-anchor="middle" x="432" y="-182.7" font-family="Times,serif" font-size="14.00" fill="#000000">...</text>
<polyline fill="none" stroke="#000000" points="360,-174.5 504,-174.5 "></polyline>
<text text-anchor="middle" x="432" y="-157.9" font-family="Times,serif" font-size="14.00" fill="#000000">...</text>
<polyline fill="none" stroke="#000000" points="360,-149.7 504,-149.7 "></polyline>
<text text-anchor="middle" x="432" y="-133.1" font-family="Times,serif" font-size="14.00" fill="#000000">...</text>
<polyline fill="none" stroke="#000000" points="360,-124.9 504,-124.9 "></polyline>
<text text-anchor="middle" x="432" y="-108.3" font-family="Times,serif" font-size="14.00" fill="#000000">...</text>
<polyline fill="none" stroke="#000000" points="360,-100.1 504,-100.1 "></polyline>
<text text-anchor="middle" x="432" y="-83.5" font-family="Times,serif" font-size="14.00" fill="#000000">...</text>
<polyline fill="none" stroke="#000000" points="360,-75.3 504,-75.3 "></polyline>
<text text-anchor="middle" x="432" y="-58.7" font-family="Times,serif" font-size="14.00" fill="#000000">...</text>
</g>
<!-- guest_rb->sys_mem -->
<g id="edge3" class="edge">
<title>guest_rb:top->sys_mem:mid</title>
<path fill="none" stroke="#000000" stroke-width="2" stroke-dasharray="5,2" d="M360,-236.5C360,-236.5 324,-137.5 324,-137.5"></path>
</g>
<!-- guest_rb->sys_mem -->
<g id="edge4" class="edge">
<title>guest_rb:btm->sys_mem:btm</title>
<path fill="none" stroke="#000000" stroke-width="2" stroke-dasharray="5,2" d="M360,-62.5C360,-62.5 324,-62.5 324,-62.5"></path>
</g>
<!-- sys_mem->host_rb -->
<!-- sys_mem->guest_rb -->
</g>
</svg>
