<svg width="823pt" height="295pt" viewBox="0.00 0.00 823.00 295.00" xmlns="http://www.w3.org/2000/svg" xmlns:xlink="http://www.w3.org/1999/xlink">
<g id="graph0" class="graph" transform="scale(1 1) rotate(0) translate(4 291)">
<title>D</title>
<text text-anchor="start" x="382.6255" y="-34.4" font-family="Times,serif" font-weight="bold" text-decoration="underline" font-size="14.00" fill="#000000">Hyper-V</text>
<text text-anchor="start" x="347.0599" y="-6.4" font-family="Times,serif" font-weight="bold" text-decoration="underline" font-size="14.00" fill="#000000">Abstract Architecture</text>
<!-- some_node -->
<g id="node1" class="node">
<title>some_node</title>
<polygon fill="none" stroke="#000000" stroke-width="3" points="13,-192 13,-278 224,-278 224,-192 13,-192"></polygon>
<polygon fill="#da70d6" stroke="transparent" stroke-width="3" points="16.5,-195.5 16.5,-274.5 220.5,-274.5 220.5,-195.5 16.5,-195.5"></polygon>
<text text-anchor="start" x="79.0263" y="-231.8" font-family="Times,serif" font-weight="bold" text-decoration="underline" font-size="14.00" fill="#000000">Root Partition</text>
<polygon fill="none" stroke="#000000" stroke-width="3" points="230,-192 230,-278 416,-278 416,-192 230,-192"></polygon>
<polygon fill="#a52a2a" stroke="transparent" stroke-width="3" points="233.5,-195.5 233.5,-274.5 412.5,-274.5 412.5,-195.5 233.5,-195.5"></polygon>
<text text-anchor="start" x="259.0417" y="-237.4" font-family="Times,serif" font-weight="bold" text-decoration="underline" font-size="14.00" fill="#000000">Enlightend (Windows)</text>
<text text-anchor="start" x="276.331" y="-223.4" font-family="Times,serif" font-weight="bold" text-decoration="underline" font-size="14.00" fill="#000000">Child Partition 1</text>
<polygon fill="none" stroke="#000000" stroke-width="3" points="422,-192 422,-278 608,-278 608,-192 422,-192"></polygon>
<polygon fill="#a52a2a" stroke="transparent" stroke-width="3" points="425.5,-195.5 425.5,-274.5 604.5,-274.5 604.5,-195.5 425.5,-195.5"></polygon>
<text text-anchor="start" x="461.1483" y="-237.4" font-family="Times,serif" font-weight="bold" text-decoration="underline" font-size="14.00" fill="#000000">Enlightend (Linux)</text>
<text text-anchor="start" x="468.331" y="-223.4" font-family="Times,serif" font-weight="bold" text-decoration="underline" font-size="14.00" fill="#000000">Child Partition 2</text>
<polygon fill="none" stroke="#000000" stroke-width="3" points="614,-192 614,-278 800,-278 800,-192 614,-192"></polygon>
<polygon fill="#a52a2a" stroke="transparent" stroke-width="3" points="617.5,-195.5 617.5,-274.5 796.5,-274.5 796.5,-195.5 617.5,-195.5"></polygon>
<text text-anchor="start" x="665.7889" y="-237.4" font-family="Times,serif" font-weight="bold" text-decoration="underline" font-size="14.00" fill="#000000">Unenlightened</text>
<text text-anchor="start" x="660.331" y="-223.4" font-family="Times,serif" font-weight="bold" text-decoration="underline" font-size="14.00" fill="#000000">Child Partition 3</text>
<polygon fill="#add8e6" stroke="transparent" points="11.5,-127.5 11.5,-187.5 804.5,-187.5 804.5,-127.5 11.5,-127.5"></polygon>
<polygon fill="none" stroke="#000000" stroke-width="3" points="13,-129 13,-186 803,-186 803,-129 13,-129"></polygon>
<text text-anchor="start" x="376.5112" y="-154.3" font-family="Times,serif" font-weight="bold" text-decoration="underline" font-size="14.00" fill="#000000">Hypervisor</text>
<polygon fill="#c0c0c0" stroke="transparent" points="11.5,-84.5 11.5,-124.5 804.5,-124.5 804.5,-84.5 11.5,-84.5"></polygon>
<polygon fill="none" stroke="#000000" stroke-width="3" points="13,-86 13,-123 803,-123 803,-86 13,-86"></polygon>
<text text-anchor="start" x="259.3116" y="-101.3" font-family="Times,serif" font-weight="bold" text-decoration="underline" font-size="14.00" fill="#000000">Physical (Bare-Metal) Host</text>
<text text-anchor="start" x="413.2542" y="-101.3" font-family="Times,serif" font-size="14.00" fill="#000000">       (Intel-VT)/(AMD-V)</text>
</g>
</g>
</svg>
