<svg width="446pt" height="149pt" viewBox="0.00 0.00 446.00 148.80" xmlns="http://www.w3.org/2000/svg" xmlns:xlink="http://www.w3.org/1999/xlink">
<g id="graph0" class="graph" transform="scale(1 1) rotate(0) translate(4 144.8)">
<title>D</title>
<text text-anchor="start" x="158.5438" y="-9.2" font-family="Times,serif" font-weight="bold" text-decoration="underline" font-size="14.00" fill="#000000">Hybrid Virtualization</text>
<!-- some_node -->
<g id="node1" class="node">
<title>some_node</title>
<polygon fill="#da70d6" stroke="transparent" points="11,-64.8 11,-133.8 83,-133.8 83,-64.8 11,-64.8"></polygon>
<polygon fill="none" stroke="#000000" stroke-width="3" points="12.5,-66.3 12.5,-132.3 81.5,-132.3 81.5,-66.3 12.5,-66.3"></polygon>
<text text-anchor="start" x="23.0845" y="-95.1" font-family="Times,serif" font-size="14.00" fill="#000000">Host OS</text>
<polygon fill="#a52a2a" stroke="transparent" stroke-width="3" points="86,-107.8 86,-133.8 169,-133.8 169,-107.8 86,-107.8"></polygon>
<polygon fill="none" stroke="#000000" stroke-width="3" points="87.5,-109.3 87.5,-132.3 167.5,-132.3 167.5,-109.3 87.5,-109.3"></polygon>
<text text-anchor="start" x="95.2272" y="-116.2" font-family="Times,serif" font-size="14.00" fill="#000000">Guest OS 1</text>
<polygon fill="#a52a2a" stroke="transparent" stroke-width="3" points="172,-107.8 172,-133.8 255,-133.8 255,-107.8 172,-107.8"></polygon>
<polygon fill="none" stroke="#000000" stroke-width="3" points="173.5,-109.3 173.5,-132.3 253.5,-132.3 253.5,-109.3 173.5,-109.3"></polygon>
<text text-anchor="start" x="181.2272" y="-116.2" font-family="Times,serif" font-size="14.00" fill="#000000">Guest OS 2</text>
<polygon fill="#a52a2a" stroke="transparent" stroke-width="3" points="258,-107.8 258,-133.8 341,-133.8 341,-107.8 258,-107.8"></polygon>
<polygon fill="none" stroke="#000000" stroke-width="3" points="259.5,-109.3 259.5,-132.3 339.5,-132.3 339.5,-109.3 259.5,-109.3"></polygon>
<text text-anchor="start" x="267.2272" y="-116.2" font-family="Times,serif" font-size="14.00" fill="#000000">Guest OS 3</text>
<polygon fill="#a52a2a" stroke="transparent" stroke-width="3" points="344,-107.8 344,-133.8 427,-133.8 427,-107.8 344,-107.8"></polygon>
<polygon fill="none" stroke="#000000" stroke-width="3" points="345.5,-109.3 345.5,-132.3 425.5,-132.3 425.5,-109.3 345.5,-109.3"></polygon>
<text text-anchor="start" x="353.2272" y="-116.2" font-family="Times,serif" font-size="14.00" fill="#000000">Guest OS 4</text>
<polygon fill="#add8e6" stroke="transparent" stroke-width="3" points="86,-64.8 86,-104.8 427,-104.8 427,-64.8 86,-64.8"></polygon>
<polygon fill="none" stroke="#000000" stroke-width="3" points="87.5,-66.3 87.5,-103.3 425.5,-103.3 425.5,-66.3 87.5,-66.3"></polygon>
<text text-anchor="start" x="202.068" y="-80.6" font-family="Times,serif" font-size="14.00" fill="#000000">Hypervisor / VMM</text>
<polygon fill="#c0c0c0" stroke="transparent" stroke-width="3" points="11,-31.8 11,-61.8 427,-61.8 427,-31.8 11,-31.8"></polygon>
<polygon fill="none" stroke="#000000" stroke-width="3" points="12.5,-33.3 12.5,-60.3 425.5,-60.3 425.5,-33.3 12.5,-33.3"></polygon>
<text text-anchor="start" x="142.0287" y="-42.6" font-family="Times,serif" font-size="14.00" fill="#000000">Physical (Bare-Metal) Host</text>
</g>
</g>
</svg>
