<svg width="371pt" height="169pt" viewBox="0.00 0.00 371.00 168.80" xmlns="http://www.w3.org/2000/svg" xmlns:xlink="http://www.w3.org/1999/xlink">
<g id="graph0" class="graph" transform="scale(1 1) rotate(0) translate(4 164.8)">
<title>D</title>
<text text-anchor="start" x="86.8432" y="-9.2" font-family="Times,serif" font-weight="bold" text-decoration="underline" font-size="14.00" fill="#000000">Native, Bare-Metal Virtualization</text>
<!-- some_node -->
<g id="node1" class="node">
<title>some_node</title>
<polygon fill="#a52a2a" stroke="transparent" points="11.5,-127.8 11.5,-153.8 94.5,-153.8 94.5,-127.8 11.5,-127.8"></polygon>
<polygon fill="none" stroke="#000000" stroke-width="3" points="13,-129.3 13,-152.3 93,-152.3 93,-129.3 13,-129.3"></polygon>
<text text-anchor="start" x="20.7272" y="-136.2" font-family="Times,serif" font-size="14.00" fill="#000000">Guest OS 1</text>
<polygon fill="#a52a2a" stroke="transparent" stroke-width="3" points="97.5,-127.8 97.5,-153.8 180.5,-153.8 180.5,-127.8 97.5,-127.8"></polygon>
<polygon fill="none" stroke="#000000" stroke-width="3" points="99,-129.3 99,-152.3 179,-152.3 179,-129.3 99,-129.3"></polygon>
<text text-anchor="start" x="106.7272" y="-136.2" font-family="Times,serif" font-size="14.00" fill="#000000">Guest OS 2</text>
<polygon fill="#a52a2a" stroke="transparent" stroke-width="3" points="183.5,-127.8 183.5,-153.8 266.5,-153.8 266.5,-127.8 183.5,-127.8"></polygon>
<polygon fill="none" stroke="#000000" stroke-width="3" points="185,-129.3 185,-152.3 265,-152.3 265,-129.3 185,-129.3"></polygon>
<text text-anchor="start" x="192.7272" y="-136.2" font-family="Times,serif" font-size="14.00" fill="#000000">Guest OS 3</text>
<polygon fill="#a52a2a" stroke="transparent" stroke-width="3" points="269.5,-127.8 269.5,-153.8 352.5,-153.8 352.5,-127.8 269.5,-127.8"></polygon>
<polygon fill="none" stroke="#000000" stroke-width="3" points="271,-129.3 271,-152.3 351,-152.3 351,-129.3 271,-129.3"></polygon>
<text text-anchor="start" x="278.7272" y="-136.2" font-family="Times,serif" font-size="14.00" fill="#000000">Guest OS 4</text>
<polygon fill="#add8e6" stroke="transparent" stroke-width="3" points="11.5,-74.8 11.5,-124.8 352.5,-124.8 352.5,-74.8 11.5,-74.8"></polygon>
<polygon fill="none" stroke="#000000" stroke-width="3" points="13,-76.3 13,-123.3 351,-123.3 351,-76.3 13,-76.3"></polygon>
<text text-anchor="start" x="127.568" y="-95.6" font-family="Times,serif" font-size="14.00" fill="#000000">Hypervisor / VMM</text>
<polygon fill="#c0c0c0" stroke="transparent" stroke-width="3" points="11.5,-31.8 11.5,-71.8 352.5,-71.8 352.5,-31.8 11.5,-31.8"></polygon>
<polygon fill="none" stroke="#000000" stroke-width="3" points="13,-33.3 13,-70.3 351,-70.3 351,-33.3 13,-33.3"></polygon>
<text text-anchor="start" x="105.0287" y="-47.6" font-family="Times,serif" font-size="14.00" fill="#000000">Physical (Bare-Metal) Host</text>
</g>
</g>
</svg>
